<?xml version="1.0" standalone="no"?>
<!DOCTYPE svg PUBLIC "-//W3C//DTD SVG 20010904//EN"
 "http://www.w3.org/TR/2001/REC-SVG-20010904/DTD/svg10.dtd">
<svg version="1.0" xmlns="http://www.w3.org/2000/svg"
 width="230.000000pt" height="230.000000pt" viewBox="0 0 230.000000 230.000000"
 preserveAspectRatio="xMidYMid meet">
<metadata>
Created by potrace 1.14, written by Peter Selinger 2001-2017
</metadata>
<g transform="translate(0.000000,230.000000) scale(0.100000,-0.100000)"
fill="#000000" stroke="none">
<path d="M1363 2273 c-27 -5 -53 -33 -32 -34 53 -3 80 -9 105 -23 34 -18 74
-51 74 -61 0 -3 9 -15 20 -27 11 -12 20 -19 20 -15 0 14 -44 97 -52 97 -4 0
-8 6 -8 13 -1 29 -77 60 -127 50z"/>
<path d="M816 2256 c-46 -21 -96 -76 -128 -141 -22 -45 -24 -54 -8 -35 37 46
50 64 50 73 0 4 5 5 10 2 6 -3 10 -2 10 4 0 21 86 60 150 68 60 8 63 10 42 21
-33 19 -93 22 -126 8z"/>
<path d="M1048 2115 c-2 -2 -25 -6 -53 -9 -74 -9 -118 -16 -135 -23 -8 -3 -24
-7 -35 -9 -25 -4 -220 -103 -245 -124 -10 -8 -37 -31 -61 -50 -83 -68 -206
-198 -201 -212 1 -5 -2 -8 -6 -8 -12 0 -63 -80 -57 -90 3 -4 -1 -10 -9 -13 -7
-3 -17 -18 -21 -34 -3 -15 -11 -30 -16 -33 -4 -3 -10 -15 -12 -25 -2 -11 -7
-27 -10 -35 -5 -14 -27 -90 -33 -115 -19 -89 -26 -275 -13 -358 5 -29 11 -67
14 -85 12 -76 83 -247 124 -295 10 -13 10 -22 -4 -51 -9 -19 -18 -40 -19 -48
-2 -7 -6 -20 -9 -28 -3 -8 -5 -22 -6 -30 0 -8 -1 -33 -1 -55 -2 -53 7 -101 29
-150 16 -35 30 -55 69 -100 14 -16 56 -50 65 -53 4 -1 20 -8 36 -16 34 -18 83
-29 129 -30 17 -1 32 -4 32 -7 0 -3 33 -2 73 2 80 9 187 37 187 51 0 4 6 8 13
8 7 0 20 9 29 20 11 12 25 17 40 14 143 -31 352 -22 493 21 68 20 89 19 100
-7 19 -43 72 -63 166 -62 88 0 114 7 209 52 88 43 146 118 168 218 13 60 4
153 -18 178 -7 9 -10 16 -6 16 4 0 0 13 -9 29 -14 28 -13 33 24 112 22 46 37
87 35 91 -3 4 0 8 7 8 7 0 9 3 6 6 -3 4 -2 15 4 26 10 19 17 45 24 98 2 14 4
25 5 25 6 0 12 95 12 170 0 180 -28 312 -90 430 -9 17 -14 30 -12 30 2 0 -9
23 -25 52 -16 28 -33 49 -37 47 -4 -3 -8 1 -8 9 0 8 -12 29 -27 46 -51 57
-113 122 -113 118 0 -2 -21 16 -47 40 -70 66 -72 68 -143 110 -64 39 -167 83
-225 98 -16 4 -39 9 -50 12 -49 11 -328 27 -337 18z"/>
</g>
</svg>
